<svg xmlns="http://www.w3.org/2000/svg" width="400" height="200" viewBox="0 0 400 200"><rect width="100%" height="100%" fill="#000000"/><path fill="#FFF" d="M87.3 104.72h11.66V92.18q0-1.77.24-3.92l-11.9 16.46Zm17.36 0h4.82v3.79q0 .53-.35.91-.34.39-.98.39h-3.49v9.35h-5.7v-9.35H82.79q-.66 0-1.16-.42-.51-.41-.64-1.02l-.69-3.31 18.16-24.25h6.2v23.91Zm35.59-4.72q0 5.01-1.08 8.71-1.07 3.69-2.97 6.1-1.89 2.42-4.47 3.59-2.59 1.18-5.58 1.18-3 0-5.55-1.18-2.56-1.17-4.44-3.59-1.88-2.41-2.94-6.1-1.06-3.7-1.06-8.71 0-5.03 1.06-8.72 1.06-3.68 2.94-6.09 1.88-2.41 4.44-3.59 2.55-1.18 5.55-1.18 2.99 0 5.58 1.18 2.58 1.18 4.47 3.59 1.9 2.41 2.97 6.09 1.08 3.69 1.08 8.72Zm-6.76 0q0-4.16-.61-6.89-.61-2.73-1.63-4.35-1.02-1.61-2.35-2.26-1.32-.65-2.75-.65-1.41 0-2.72.65-1.31.65-2.32 2.26-1 1.62-1.6 4.35-.6 2.73-.6 6.89t.6 6.89q.6 2.73 1.6 4.35 1.01 1.61 2.32 2.26 1.31.65 2.72.65 1.43 0 2.75-.65 1.33-.65 2.35-2.26 1.02-1.62 1.63-4.35.61-2.73.61-6.89Zm37.5 0q0 5.01-1.08 8.71-1.07 3.69-2.97 6.1-1.89 2.42-4.47 3.59-2.59 1.18-5.58 1.18-3 0-5.55-1.18-2.56-1.17-4.44-3.59-1.88-2.41-2.94-6.1-1.06-3.7-1.06-8.71 0-5.03 1.06-8.72 1.06-3.68 2.94-6.09 1.88-2.41 4.44-3.59 2.55-1.18 5.55-1.18 2.99 0 5.58 1.18 2.58 1.18 4.47 3.59 1.9 2.41 2.97 6.09 1.08 3.69 1.08 8.72Zm-6.76 0q0-4.16-.61-6.89-.61-2.73-1.63-4.35-1.02-1.61-2.35-2.26-1.32-.65-2.75-.65-1.41 0-2.72.65-1.31.65-2.32 2.26-1 1.62-1.6 4.35-.6 2.73-.6 6.89t.6 6.89q.6 2.73 1.6 4.35 1.01 1.61 2.32 2.26 1.31.65 2.72.65 1.43 0 2.75-.65 1.33-.65 2.35-2.26 1.02-1.62 1.63-4.35.61-2.73.61-6.89Zm48.84 10.39-3.47 3.42-8.99-8.99-9.06 9.04-3.47-3.42 9.06-9.09-8.64-8.64 3.45-3.44 8.64 8.64 8.58-8.59 3.5 3.45-8.61 8.61 9.01 9.01Zm31.9 2.68h9.84q1.06 0 1.68.59.62.6.62 1.58v3.92h-26.29v-2.17q0-.67.28-1.39.28-.73.89-1.32l11.63-11.66q1.46-1.48 2.61-2.83 1.16-1.35 1.92-2.68.77-1.32 1.18-2.69.41-1.36.41-2.87 0-1.38-.39-2.43-.4-1.04-1.13-1.76-.73-.72-1.75-1.07-1.02-.36-2.29-.36-1.17 0-2.16.33-.99.33-1.76.93-.77.59-1.3 1.39-.53.79-.8 1.75-.45 1.22-1.16 1.61-.72.4-2.07.19l-3.44-.61q.39-2.76 1.53-4.84 1.14-2.08 2.85-3.47 1.71-1.39 3.92-2.09 2.22-.7 4.76-.7 2.65 0 4.85.78 2.2.78 3.76 2.21 1.57 1.43 2.44 3.45.87 2.01.87 4.48 0 2.12-.62 3.92-.62 1.8-1.67 3.44-1.04 1.65-2.45 3.18-1.4 1.54-2.94 3.13l-8.64 8.82q1.25-.37 2.48-.57 1.23-.19 2.34-.19ZM288.96 100q0 5.01-1.07 8.71-1.07 3.69-2.97 6.1-1.89 2.42-4.48 3.59-2.58 1.18-5.57 1.18-3 0-5.56-1.18-2.55-1.17-4.43-3.59-1.89-2.41-2.95-6.1-1.06-3.7-1.06-8.71 0-5.03 1.06-8.72 1.06-3.68 2.95-6.09 1.88-2.41 4.43-3.59 2.56-1.18 5.56-1.18 2.99 0 5.57 1.18 2.59 1.18 4.48 3.59 1.9 2.41 2.97 6.09 1.07 3.69 1.07 8.72Zm-6.75 0q0-4.16-.61-6.89-.61-2.73-1.63-4.35-1.02-1.61-2.35-2.26-1.32-.65-2.75-.65-1.41 0-2.72.65-1.31.65-2.32 2.26-1.01 1.62-1.6 4.35-.6 2.73-.6 6.89t.6 6.89q.59 2.73 1.6 4.35 1.01 1.61 2.32 2.26 1.31.65 2.72.65 1.43 0 2.75-.65 1.33-.65 2.35-2.26 1.02-1.62 1.63-4.35.61-2.73.61-6.89Zm37.49 0q0 5.01-1.07 8.71-1.07 3.69-2.97 6.1-1.89 2.42-4.48 3.59-2.58 1.18-5.57 1.18-3 0-5.56-1.18-2.55-1.17-4.43-3.59-1.89-2.41-2.95-6.1-1.06-3.7-1.06-8.71 0-5.03 1.06-8.72 1.06-3.68 2.95-6.09 1.88-2.41 4.43-3.59 2.56-1.18 5.56-1.18 2.99 0 5.57 1.18 2.59 1.18 4.48 3.59 1.9 2.41 2.97 6.09 1.07 3.69 1.07 8.72Zm-6.75 0q0-4.16-.61-6.89-.61-2.73-1.63-4.35-1.02-1.61-2.35-2.26-1.32-.65-2.75-.65-1.41 0-2.72.65-1.31.65-2.32 2.26-1.01 1.62-1.6 4.35-.6 2.73-.6 6.89t.6 6.89q.59 2.73 1.6 4.35 1.01 1.61 2.32 2.26 1.31.65 2.72.65 1.43 0 2.75-.65 1.33-.65 2.35-2.26 1.02-1.62 1.63-4.35.61-2.73.61-6.89Z"/></svg>